<svg id="SvgjsSvg1073" width="360" height="275" xmlns="http://www.w3.org/2000/svg" version="1.1" xmlns:xlink="http://www.w3.org/1999/xlink" xmlns:svgjs="http://svgjs.com/svgjs">
  <defs id="SvgjsDefs1074">
    <svg width="50px" height="50px" xmlns="http://www.w3.org/2000/svg" xmlns:xlink="http://www.w3.org/1999/xlink" version="1.1" x="0px" y="0px" viewBox="0 0 100 100" enable-background="new 0 0 100 100" id="a1481646502431">
      <path d="M68.377,71.031l-9.186-24.232l35.727-24.934l-46.026,9.318l-2.953-1.46l-2.131-3.341l-1.475-9.541l-3.384-3.975  l-6.081-1.455l-7.219,2.142l-20.568-1.65l19.832,5.88l5.583,11.813l5.136,18.275l26.186,27.187l9.244,13.529l-2.84-11.379  l7.578,6.687L68.377,71.031z M34.144,16.91l-1.288-0.272l-0.409-1.252l0.88-0.979l1.289,0.272l0.408,1.252L34.144,16.91z">
      </path>
    </svg><!--?xml version="1.0"?-->
    <svg width="239.17052631579px" height="110.63157894737px" id="t1481646502431">
      <path fill="#2980B9" d="M13.793684210526,60.934736842106q-1.061052631579,0-2.2989473684211-0.050526315789474t-2.4757894736842-0.15157894736842t-2.4505263157895-0.25263157894737t-2.2231578947369-0.40421052631579l0-33.953684210527q1.0105263157895-0.25263157894737,2.2231578947369-0.40421052631579t2.4505263157895-0.25263157894737t2.4505263157895-0.15157894736842t2.2736842105263-0.050526315789474q3.0315789473684,0,5.6842105263158,0.45473684210527t4.5978947368421,1.541052631579t3.0568421052632,2.8547368421053t1.1115789473684,4.3452631578948q0,2.88-1.3642105263158,4.7242105263158t-3.6378947368421,2.7536842105263q3.0821052631579,0.90947368421053,4.901052631579,2.88t1.8189473684211,5.5578947368421q0,5.2547368421053-3.8652631578948,7.9073684210527t-12.252631578947,2.6526315789474z M9.1957894736843,44.311578947369l0,12.328421052632q0.55578947368421,0.050526315789474,1.3136842105263,0.10105263157895q0.65684210526316,0.050526315789474,1.541052631579,0.075789473684211t2.0463157894737,0.025263157894737q2.1726315789474,0,4.1178947368421-0.27789473684211t3.4105263157895-0.98526315789474t2.3494736842105-1.9705263157895t0.88421052631579-3.1831578947369q0-1.7178947368421-0.65684210526316-2.9052631578948t-1.8947368421053-1.8947368421053t-2.9557894736842-1.0105263157895t-3.84-0.30315789473684l-6.3157894736842,0z M9.1957894736843,40.37052631579l5.1536842105263,0q1.8189473684211,0,3.4357894736842-0.25263157894737t2.8042105263158-0.90947368421053t1.8694736842105-1.7178947368421t0.6821052631579-2.6778947368421q0-1.5157894736842-0.70736842105264-2.5515789473684t-1.9452631578947-1.6673684210526t-2.9052631578948-0.93473684210527t-3.5368421052632-0.30315789473684t-2.9305263157895,0.050526315789474t-1.92,0.15157894736842l0,10.812631578947z M45.534315789474,25.616842105264l4.901052631579,0l0,35.014736842105l-4.901052631579,0l0-35.014736842105z M84.954947368421,45.978947368422q0.80842105263158,1.0105263157895,2.0463157894737,2.6526315789474t2.5515789473684,3.6378947368421t2.6021052631579,4.1684210526316t2.1978947368421,4.1936842105263l-5.3557894736842,0q-1.0105263157895-1.92-2.1978947368421-3.8905263157895t-2.4-3.7642105263158t-2.4-3.36t-2.1473684210526-2.7284210526316q-0.65684210526316,0.050526315789474-1.3389473684211,0.050526315789474l-1.3894736842105,0l-4.3957894736842,0l0,13.692631578947l-4.901052631579,0l0-34.509473684211q2.0715789473684-0.50526315789474,4.6231578947369-0.6821052631579t4.6736842105263-0.17684210526316q7.3768421052632,0,11.242105263158,2.7789473684211t3.8652631578948,8.2863157894737q0,3.4863157894737-1.8442105263158,5.9621052631579t-5.4315789473685,3.6884210526316z M77.527578947369,29.557894736842q-3.1326315789474,0-4.8,0.15157894736842l0,13.187368421053l3.4863157894737,0q2.5263157894737,0,4.5473684210527-0.25263157894737t3.4105263157895-0.96000000000001t2.1473684210526-1.9957894736842t0.75789473684211-3.4105263157895q0-1.9705263157895-0.75789473684211-3.2842105263158t-2.0463157894737-2.0715789473684t-3.0315789473684-1.061052631579t-3.7136842105263-0.30315789473684z M137.05768421053,43.098947368422q0,4.5473684210527-1.4147368421053,7.9073684210527t-3.9915789473684,5.5578947368421t-6.1642105263158,3.2842105263158t-7.8821052631579,1.0863157894737q-2.1221052631579,0-4.6736842105263-0.17684210526316t-4.6231578947369-0.6821052631579l0-33.953684210527q2.0715789473684-0.50526315789474,4.6231578947369-0.6821052631579t4.6736842105263-0.17684210526316q4.2947368421053,0,7.8821052631579,1.0863157894737t6.1642105263158,3.2842105263158t3.9915789473684,5.5578947368421t1.4147368421053,7.9073684210527z M118.0092631579,56.64q6.9726315789474,0,10.408421052632-3.5621052631579t3.4357894736842-9.9789473684211t-3.4357894736842-9.9789473684211t-10.408421052632-3.5621052631579q-2.0715789473684,0-3.2084210526316,0.050526315789474t-1.5915789473684,0.10105263157895l0,26.778947368421q0.45473684210527,0.050526315789474,1.5915789473684,0.10105263157895t3.2084210526316,0.050526315789474z M170.16252631579,45.978947368422q0.80842105263158,1.0105263157895,2.0463157894737,2.6526315789474t2.5515789473684,3.6378947368421t2.6021052631579,4.1684210526316t2.1978947368421,4.1936842105263l-5.3557894736842,0q-1.0105263157895-1.92-2.1978947368421-3.8905263157895t-2.4-3.7642105263158t-2.4-3.36t-2.1473684210526-2.7284210526316q-0.65684210526316,0.050526315789474-1.3389473684211,0.050526315789474l-1.3894736842105,0l-4.3957894736842,0l0,13.692631578947l-4.901052631579,0l0-34.509473684211q2.0715789473684-0.50526315789474,4.6231578947369-0.6821052631579t4.6736842105263-0.17684210526316q7.3768421052632,0,11.242105263158,2.7789473684211t3.8652631578948,8.2863157894737q0,3.4863157894737-1.8442105263158,5.9621052631579t-5.4315789473685,3.6884210526316z M162.73515789474,29.557894736842q-3.1326315789474,0-4.8,0.15157894736842l0,13.187368421053l3.4863157894737,0q2.5263157894737,0,4.5473684210527-0.25263157894737t3.4105263157895-0.96000000000001t2.1473684210526-1.9957894736842t0.75789473684211-3.4105263157895q0-1.9705263157895-0.75789473684211-3.2842105263158t-2.0463157894737-2.0715789473684t-3.0315789473684-1.061052631579t-3.7136842105263-0.30315789473684z">
      </path>
    </svg>
  </defs>
  <g id="SvgjsG1077" transform="matrix(1,0,0,1,0,94.87020874023438)">
    <use id="SvgjsUse1076" xlink:href="#a1481646502431" fill="#2980b9" stroke="#2980b9" x="155" y="0"></use>
    <use id="SvgjsUse1075" xlink:href="#t1481646502431" fill="#2980b9" x="88.04716205596924" y="29.03034782409668"></use>
  </g>
</svg>
